<svg xmlns="http://www.w3.org/2000/svg" height="800" width="1200" xml:space="preserve" y="0" x="0" id="svg3063" version="1.1" viewBox="-42.6495 -103.42525 369.629 620.5515"><style id="style4550" type="text/css">.st1{fill:#682a8f}</style><g transform="translate(-135.419 583.013)" id="layer1"><g id="g3328" transform="matrix(2.15014 0 0 2.15097 -155.75 -1003.633)"><g id="g3278"><path d="M198.874 195.549c-.273-.002-.554.006-.826.009-8.302.088-16.702 2.039-24.443 5.731 0 0 1.204-.309 2.026-.302.117.001.223.002.32.018.797.128 1.553.54 2.195 1.031.907.693 1.236 2.022 2.212 2.612.793.479 1.793.558 2.719.604 1.988.1 3.938-.61 5.926-.711 2.008-.102 4.043-.179 6.033.107 2.941.422 5.856 1.206 8.592 2.363 3.223 1.364 6.225 3.262 9.054 5.322 2.772 2.019 5.213 4.465 7.686 6.842 3.578 3.439 6.452 7.621 10.325 10.725 1.59 1.274 3.22 2.354 5.225 3.181 2.863 1.182 9.063 2.035 9.063 2.035l2.594.649c1.348.224 2.571.533 3.652.915l.062.018c.988.354 1.856.777 2.594 1.262-2.004-6.616-5.476-12.924-9.303-18.561-9.59-14.129-28.495-23.73-45.706-23.85z" id="path3124" fill="#9e7fba"/><path d="M164.017 207.038a57.743 57.743 0 00-13.506 13.977c-5.787 8.484-9.987 18.857-9.987 29.197v48.052c-.004 1.061.589 1.599 1.342 1.599h14.572c-1.923-.944-3.29-2.2-4.043-3.714-5.604-11.264 12.319-31.142 40.188-46.399 1.193-.874 2.319-1.794 2.284-2.15-.045-.45-1.848.284-1.848.284-13.297 5.27-25.021 13.574-35.754 22.569 0 0-2.148-9.643-3.057-14.394-.56-2.931-1.302-5.842-1.564-8.814-.241-2.738 0-8.246 0-8.246s.13-5.542.96-8.246c.869-2.831 4.141-8.166 4.141-8.166s2.667-3.751 4.754-5.838c.53-.53 1.067-1.559 1.084-2.346.014-.647-.409-1.041-.56-1.67-.196-.819-.393-1.806-.364-2.648a4.226 4.226 0 01.435-1.768c.201-.419.613-.921.923-1.279z" class="st1" id="path3122"/><path d="M255.678 250.131c-4.332 10.748-18.97 25.373-40.161 36.741-12.256 6.575-23.378 10.756-32.778 12.99h71.642c.87 0 1.324-.422 1.324-1.573-.013-14.355-.024-31.377-.027-48.158z" class="st1" id="path3094"/><path d="M239.027 249.056c-7.77-.013-23.445 5.461-39.948 14.803-24.248 13.725-35.176 27.409-30.974 29.952 5.601 3.389 23.588 1.847 48.718-12.662 10.313-5.954 29.743-20.357 27.198-29.855-.407-1.517-2.184-2.233-4.994-2.238zm-37.407 16.882s5.456 10.433-2.985 16.846c-11.537 8.765-20.045-.569-20.045-.569 5.679-6.04 13.688-11.833 23.03-16.277z" class="st1" id="path3096"/></g><g id="g3261"><g transform="matrix(5.6956 0 0 5.7604 -1277.173 570.001)" id="text3143"><path d="M252.614-32.947c.222 0 .392-.047.511-.141a.488.488 0 00.178-.405v-.017a.492.492 0 00-.17-.393c-.113-.097-.291-.145-.533-.145h-1.345v1.1h1.359zm-.457-2.26c.222 0 .391-.043.507-.128.116-.085.174-.216.174-.392v-.017a.461.461 0 00-.163-.38c-.109-.088-.271-.132-.488-.132h-.933v1.049zm-2.301-2.38h2.657c.326 0 .605.046.836.137.232.091.415.16.568.312.104.119.233.222.31.427.059.159.09.404.09.609v.047c0 .347-.133.614-.283.827-.151.213-.367.241-.599.355.441.07.916.427 1.101.652.185.225.277.539.277.942v.017c0 .517-.171.921-.514 1.211-.343.29-1.15.435-1.772.435h-2.672v-5.971z" id="path3167"/><path d="M255.379-37.587h4.508v1.247h-3.056v1.102h2.604v1.169h-2.604v1.181h3.124v1.272h-4.576z" id="path3169"/><path d="M260.586-37.587h1.555v4.706h2.717v1.265h-4.272z" id="path3171"/><path d="M265.457-37.587h1.555v4.706h2.717v1.265h-4.272z" id="path3187"/></g><g id="g3255"><path d="M145.703 320.385h-10.284v-7.172h29.628v7.172h-10.586v27.324h-8.758z" id="path3157"/><path d="M180.733 335.711l-4.213-11.794-4.487 11.794zm-7.397-22.642h7.106l14.035 34.64h-9.232l-1.993-5.076H169.67l-2.108 5.076h-8.537z" id="path3159"/><path d="M242.812 312.63c-2.397.077-5.023.724-7.037 1.599-2.148.933-3.912 2.11-5.5 3.732-1.588 1.621-2.418 3.419-3.305 5.598s-1.128 4.492-1.128 6.948v.107c0 2.456.241 4.759 1.128 6.922.887 2.162 2.104 4.046 3.661 5.651 1.557 1.605 3.414 2.878 5.562 3.812 2.148.934 4.48 1.395 7.002 1.395 2.521 0 4.854-.461 7.002-1.395a17.589 17.589 0 005.607-3.838c1.588-1.621 2.827-3.517 3.714-5.695.887-2.178 1.075-4.5 1.075-6.957v-.098c0-2.457-.188-4.76-1.075-6.922s-2.113-4.046-3.67-5.651c-1.556-1.605-3.405-2.879-5.553-3.812-2.148-.933-4.488-1.395-7.01-1.395-.16-.001-.313-.006-.473-.001zm.373 7.544c1.336 0 2.559.279 3.661.844a9.21 9.21 0 012.852 2.275 10.303 10.303 0 011.857 3.279c.434 1.24.649 2.55.649 3.936v.116c0 1.386-.215 2.696-.649 3.936-.434 1.24-1.036 2.331-1.804 3.261a8.487 8.487 0 01-2.808 2.212c-1.102.547-2.316.817-3.652.817-1.335 0-2.559-.279-3.661-.844a8.905 8.905 0 01-2.826-2.275 10.563 10.563 0 01-1.83-3.279 11.876 11.876 0 01-.649-3.945v-.107c0-1.387.205-2.696.622-3.936.417-1.24 1.019-2.331 1.804-3.261a8.835 8.835 0 012.808-2.212c1.086-.547 2.29-.817 3.626-.817z" id="path3163"/><path d="M193.127 330.553c0-4.395 1.15-9.307 4.157-12.512 3.288-3.503 8.559-5.402 13.363-5.402 9.402 0 13.743 6.504 13.743 6.504l-6.685 4.825s-1.794-2.037-2.965-2.664c-1.189-.637-2.577-1.132-3.92-1.005-2.507.237-5.167 1.33-6.836 3.217-1.565 1.77-2.312 4.374-2.212 6.735.134 3.165 1.346 6.647 3.719 8.746 1.319 1.166 3.569 1.458 5.077 1.458 2.237 0 3.451-.44 4.976-1.206 1.031-.518 2.664-2.212 2.664-2.212l6.987 5.026s-5.238 6.233-14.375 6.233c-4.018 0-8.394-.961-11.195-3.33-4.143-3.503-6.498-6.359-6.498-14.413z" id="path3189"/></g><g transform="matrix(.625 0 0 .625 405.364 842.345)" id="g3217"><g id="text3219"><path d="M-229.087-738.249h-2.004v-.623h4.691v.623h-2.004v5.348h-.683z" id="path3231"/><path d="M-226.044-738.872h.682l2.175 3.259 2.175-3.259h.683v5.971h-.674v-4.836l-2.175 3.199h-.034l-2.175-3.19v4.828h-.657z" id="path3233"/></g></g></g></g></g></svg>